<svg width="42" height="38" viewBox="0 0 42 38" fill="red" xmlns="http://www.w3.org/2000/svg">
<path d="M20.9684 16.2866C14.4672 16.2866 5.3155 26.6938 5.3155 33.2672C5.24342 36.2273 7.43368 38 11.1229 38C15.12 38 17.7657 35.8711 20.9684 35.8711C24.2038 35.8711 26.8576 38 30.8139 38C34.426 38 36.69 36.229 36.69 33.2714C36.6212 26.7023 27.472 16.2866 20.9684 16.2866ZM8.91132 15.2179C8.06192 12.2815 5.43018 10.3731 3.04498 10.9668C0.659781 11.5606 -0.582291 14.4206 0.267436 17.3553C1.11683 20.2985 3.74858 22.2069 6.13378 21.6132C8.51897 21.0195 9.75498 18.1526 8.91132 15.2179ZM15.849 13.4537C18.3776 12.7646 19.6472 9.28914 18.6749 5.53425C17.7026 1.77936 14.8661 -0.496307 12.3278 0.116927C9.79921 0.806073 8.52962 4.28149 9.50188 8.03638C10.4758 11.7149 13.3098 14.1492 15.849 13.4537ZM38.8983 10.9685C36.5131 10.4511 33.8814 12.2832 33.032 15.2196C32.1826 18.1568 33.421 21.0186 35.8062 21.6123C38.1914 22.1297 40.8125 20.2977 41.6726 17.3613C42.5187 14.4206 41.2081 11.5623 38.8983 10.9685ZM26.0877 13.4537C28.5532 14.1428 31.4626 11.7149 32.4348 8.03638C33.4071 4.35782 32.1379 0.805648 29.609 0.116927C27.1435 -0.572219 24.2341 1.85569 23.2618 5.53425C22.2871 9.2128 23.5567 12.7667 26.0877 13.4537Z" fill="#874356"/>
</svg>
