<svg width="42" height="38" viewBox="0 0 42 38" fill="none" xmlns="http://www.w3.org/2000/svg">
<path d="M21.0029 16.2866C14.491 16.2866 5.32424 26.6938 5.32424 33.2672C5.25204 36.2273 7.4459 38 11.1412 38C15.1449 38 17.7949 35.8711 21.0029 35.8711C24.2436 35.8711 26.9018 38 30.8646 38C34.4826 38 36.7503 36.229 36.7503 33.2714C36.6814 26.7023 27.5172 16.2866 21.0029 16.2866ZM8.92597 15.2179C8.07517 12.2815 5.43911 10.3731 3.04999 10.9668C0.660866 11.5606 -0.583249 14.4206 0.267875 17.3553C1.11867 20.2985 3.75474 22.2069 6.14386 21.6132C8.53298 21.0195 9.77102 18.1526 8.92597 15.2179ZM15.8751 13.4537C18.4078 12.7646 19.6795 9.28914 18.7056 5.53425C17.7317 1.77936 14.8905 -0.496307 12.3481 0.116927C9.81532 0.806073 8.54364 4.28149 9.5175 8.03638C10.493 11.7149 13.3317 14.1492 15.8751 13.4537ZM38.9623 10.9685C36.5731 10.4511 33.9371 12.2832 33.0863 15.2196C32.2355 18.1568 33.4759 21.0186 35.8651 21.6123C38.2542 22.1297 40.8796 20.2977 41.7411 17.3613C42.5886 14.4206 41.2759 11.5623 38.9623 10.9685ZM26.1306 13.4537C28.6001 14.1428 31.5143 11.7149 32.4881 8.03638C33.462 4.35782 32.1907 0.805648 29.6577 0.116927C27.1881 -0.572219 24.2739 1.85569 23.3 5.53425C22.3237 9.2128 23.5954 12.7667 26.1306 13.4537Z" fill="#FF4C29"/>
</svg>
